<svg xmlns="http://www.w3.org/2000/svg" width="900" height="265.89" viewBox="0 0 900 265.89"><path d="M206,0H119.6l26.68,83.16h86.35l-69.86,49.59,26.7,83.64h0c45-32.76,59.66-82.34,43.17-133.23ZM6.56,83.16H92.91L119.6,0H33.25L6.56,83.16h0c-16.5,50.89-1.8,100.47,43.17,133.23h0l26.69-83.64ZM49.73,216.39l69.87,49.49,69.86-49.49L119.6,166.08ZM701.41,81.12c-20.44,0-33.42,9.28-39.58,24.33h-1.55V37H629.62V216H661V138.31c0-19.23,11.95-30.31,28.76-30.31,16.45,0,26.15,10.48,26.15,28.4V216h31.34V131.17C747.21,99,729,81.12,701.41,81.12ZM832,36.68c-42.43,0-68,33.19-68.06,90.88,0,57.86,25.45,91.49,68.06,91.49s68-33.54,68-91.49C900,70,874.37,36.68,832,36.68Zm-35.7,90.91c.09-42.07,13.8-64.24,35.7-64.24,15,0,26.09,10.28,31.7,30.11L796.82,142C796.44,137.47,796.23,132.67,796.25,127.59Zm35.7,64.5c-15.47,0-26.88-10.93-32.25-32.18l67.2-48.85a162.35,162.35,0,0,1,.84,16.5c0,42.43-13.72,64.5-35.79,64.5Zm-343.39-32c0,20.27-14.46,30.31-28.31,30.31-15.07,0-25.12-10.66-25.12-27.54V83H403.79v84.69c0,32,18.18,50.05,44.33,50.05,19.91,0,33.94-10.48,40-25.37h1.39V216h30.39V83H488.56ZM332.93,81c-28,0-49.43,12.46-56.36,36.71l29.27,4.15c3.09-9.09,11.94-16.88,27.26-16.88,14.55,0,22.52,7.44,22.52,20.52v.56c0,9-9.44,9.43-32.9,12-25.76,2.74-50.51,10.43-50.51,40.38,0,26.15,19.13,40,44.5,40,20.88,0,33.33-9.79,39-20.95h1.05v18.26h30.12v-89C387,91.55,358.3,81,332.93,81Zm22.8,87c0,14.81-12,27.36-30.82,27.36-13.07,0-22.42-6-22.42-17.49,0-12,10.48-17.05,24.5-19.05,8.23-1.12,24.67-3.2,28.74-6.48ZM586.82,49.77H555.47v33.3h-19V108h19V181.6c-.17,25,18,37.32,41.57,36.64A65.1,65.1,0,0,0,613,215.92V191.09c-2.37.32-7.93,1-12,1.12-7.88.18-14.2-2.77-14.2-15.41V108h26.24V83.07H586.82Z" transform="translate(0 0)"/></svg>