<?xml version="1.0" encoding="utf-8"?>
<!-- Generator: Adobe Illustrator 23.0.4, SVG Export Plug-In . SVG Version: 6.00 Build 0)  -->
<svg version="1.1" id="Layer_1" xmlns="http://www.w3.org/2000/svg" xmlns:xlink="http://www.w3.org/1999/xlink" x="0px" y="0px"
	 viewBox="0 0 1000 400" style="enable-background:new 0 0 1000 400;" xml:space="preserve">
<style type="text/css">
	.st0{fill:#00AEEF;}
	.st1{fill:#80888F;}
</style>
<g>
	<path class="st0" d="M215.7,112.9c0-1.8-1.5-3.5-3.3-3.9H62c-1.8,0.4-3.3,1.8-3.3,3.9v80.2c0,9.2,1.3,17.9,4.4,25.9l152.8-85.7
		v-20.3H215.7z"/>
	<path class="st0" d="M137.2,281.4c19.6,0,78.5-35.7,78.5-88.3v-27.2L63.8,222.1C78.6,257.4,121.1,281.4,137.2,281.4"/>
</g>
<polygon class="st1" points="268.7,139.5 290.1,139.5 290.1,220.6 330.2,220.6 330.2,239.6 268.7,239.6 "/>
<g>
	<path class="st1" d="M391.8,203.6c0-11.1-9.2-18.5-18.7-18.5c-10.2,0-18.7,7.9-18.7,18.5c0,10.5,8.5,18.7,18.7,18.7
		C383.1,222.3,391.8,214.5,391.8,203.6 M412.7,167.8v71.7h-20.1v-8.9c-5,7-15.2,10.3-23.1,10.3c-18.5,0-35.3-14.4-35.3-37.5
		s16.8-37.5,35.3-37.5c8.3,0,18.1,3.1,23.1,10.3v-8.7h20.1V167.8z"/>
	<path class="st1" d="M421.7,203.4c0-22.7,18.5-37.5,39.4-37.5c13.1,0,23.7,6.1,30.3,15.3L476.2,192c-3.1-4.4-9.2-7.2-15.2-7.2
		c-11.5,0-19,8.1-19,18.7c0,10.7,7.8,18.8,19,18.8c5.9,0,11.8-2.8,15.2-7.2l15.2,10.7c-6.8,9.4-17.2,15.3-30.3,15.3
		C440.2,240.9,421.7,226.1,421.7,203.4"/>
	<path class="st1" d="M551.6,197.1c-0.6-8.5-7.8-13.5-16.8-13.5c-8.1,0-15.3,3.9-17.6,13.5H551.6z M571.6,210.2h-54.1
		c2.2,8.3,8.9,12.9,18.7,12.9c7.2,0,14.4-3,18.8-7.9l11.8,11.8c-6.8,9.1-19.4,14-32,14c-22,0-38.2-15.2-38.2-37.3
		c0-23.3,17.6-37.7,38.2-37.7c20.5,0,37.3,14.4,37.3,36.6C571.7,204.5,571.6,206.9,571.6,210.2"/>
</g>
<polygon class="st1" points="688.1,167.8 662.8,239.6 645.6,239.6 630.7,192.9 616.5,239.6 599.3,239.6 573,167.8 594.8,167.8 
	608.5,211.5 622.2,167.8 639.2,167.8 652.9,211.5 666.3,167.8 "/>
<g>
	<path class="st1" d="M743.9,203.6c0-11.3-8.1-18.8-18.1-18.8c-10,0-18.1,7.6-18.1,18.8c0,11.1,8.1,18.7,18.1,18.7
		C735.8,222.3,743.9,214.7,743.9,203.6 M687,203.6c0-22.7,18.1-37.5,38.6-37.5s38.6,14.8,38.6,37.5s-18.1,37.5-38.6,37.5
		S687,226.1,687,203.6"/>
	<path class="st1" d="M826,168.3l-4.6,19.2c-4.2-2.4-7.9-2.6-10.3-2.6c-10.3,0-17.4,9.6-17.4,30.1v24.6h-20.1v-71.7h20v15.3
		c4.1-12,12.2-17.2,21.1-17.2C818.4,165.9,822.8,166.6,826,168.3"/>
</g>
<polygon class="st1" points="879.9,239.6 854.8,208.4 854.8,239.6 834.5,239.6 834.5,135.4 854.8,135.4 854.8,189.7 872.9,167.8 
	898.8,167.8 870.7,199.3 905.1,239.6 "/>
<polygon class="st1" points="906.7,136.7 903,136.7 903,147.2 901.4,147.2 901.4,136.7 897.7,136.7 897.7,135.4 906.7,135.4 "/>
<polygon class="st1" points="918,135.4 914.3,145 914.3,145 910.4,135.4 908.4,135.4 908.4,147.2 910.1,147.2 910.1,142.4 
	909.9,137.8 909.9,137.8 913.8,147.2 914.9,147.2 918.6,137.6 918.7,137.6 918.6,142.4 918.6,147.2 920,147.2 920,135.4 "/>
</svg>
